<mxfile><diagram id="SwJvgE9uuxyUoMfDGvZC" name="Page-1"><mxGraphModel dx="1390" dy="587" grid="0" gridSize="10" guides="1" tooltips="1" connect="1" arrows="1" fold="1" page="0" pageScale="1" pageWidth="850" pageHeight="1100" background="#FFFFFF" math="0" shadow="0"><root><mxCell id="0"/><mxCell id="1" parent="0"/><mxCell id="89" style="html=1;exitX=0.5;exitY=1;exitDx=0;exitDy=0;entryX=0.5;entryY=0;entryDx=0;entryDy=0;fontSize=14;fontColor=#FFFFFF;strokeColor=default;strokeWidth=2;endArrow=none;endFill=0;" parent="1" source="3" target="88" edge="1"><mxGeometry relative="1" as="geometry"/></mxCell><mxCell id="90" style="html=1;exitX=0.5;exitY=0;exitDx=0;exitDy=0;entryX=0.5;entryY=1;entryDx=0;entryDy=0;fontSize=14;fontColor=#FFFFFF;strokeColor=default;strokeWidth=2;endArrow=none;endFill=0;" parent="1" source="3" target="86" edge="1"><mxGeometry relative="1" as="geometry"/></mxCell><mxCell id="95" style="edgeStyle=none;html=1;exitX=0.5;exitY=1;exitDx=0;exitDy=0;entryX=0.5;entryY=0;entryDx=0;entryDy=0;fontSize=14;fontColor=#FFFFFF;strokeColor=default;strokeWidth=2;endArrow=none;endFill=0;" parent="1" source="3" target="94" edge="1"><mxGeometry relative="1" as="geometry"/></mxCell><mxCell id="256" value="1" style="edgeStyle=orthogonalEdgeStyle;html=1;strokeColor=default;strokeWidth=2;fontSize=15;fontColor=#000000;endArrow=none;endFill=0;startArrow=none;" parent="1" source="257" target="44" edge="1"><mxGeometry relative="1" as="geometry"/></mxCell><mxCell id="265" style="edgeStyle=none;html=1;exitX=0.5;exitY=0;exitDx=0;exitDy=0;entryX=0.5;entryY=1;entryDx=0;entryDy=0;strokeColor=default;strokeWidth=2;fontSize=15;fontColor=#000000;endArrow=none;endFill=0;" parent="1" source="3" target="270" edge="1"><mxGeometry relative="1" as="geometry"><mxPoint x="649.9999999999995" y="520.9999999999998" as="targetPoint"/></mxGeometry></mxCell><mxCell id="266" style="edgeStyle=none;html=1;exitX=0.5;exitY=0;exitDx=0;exitDy=0;entryX=1;entryY=0.5;entryDx=0;entryDy=0;strokeColor=default;strokeWidth=2;fontSize=15;fontColor=#000000;endArrow=none;endFill=0;" parent="1" source="3" target="87" edge="1"><mxGeometry relative="1" as="geometry"><mxPoint x="754.9099999999999" y="530" as="targetPoint"/></mxGeometry></mxCell><mxCell id="267" style="edgeStyle=none;html=1;entryX=0;entryY=0;entryDx=0;entryDy=0;strokeColor=default;strokeWidth=2;fontSize=15;fontColor=#000000;endArrow=none;endFill=0;exitX=0.5;exitY=1;exitDx=0;exitDy=0;" parent="1" source="3" target="217" edge="1"><mxGeometry relative="1" as="geometry"><mxPoint x="653" y="625" as="sourcePoint"/></mxGeometry></mxCell><mxCell id="447" value="N" style="edgeStyle=none;html=1;exitX=0;exitY=1;exitDx=0;exitDy=0;entryX=0.898;entryY=0.481;entryDx=0;entryDy=0;entryPerimeter=0;strokeColor=default;strokeWidth=2;fontSize=15;fontColor=#000000;endArrow=none;endFill=0;" parent="1" source="3" target="443" edge="1"><mxGeometry relative="1" as="geometry"/></mxCell><mxCell id="468" style="edgeStyle=none;shape=link;html=1;fontSize=14;fontColor=#000000;width=7;" edge="1" parent="1"><mxGeometry relative="1" as="geometry"><mxPoint x="7" y="977.0000732421875" as="targetPoint"/><mxPoint x="603" y="595.3" as="sourcePoint"/><Array as="points"><mxPoint x="587" y="595.3"/><mxPoint x="7" y="589.8"/></Array></mxGeometry></mxCell><mxCell id="477" value="&lt;font color=&quot;#000000&quot;&gt;1&lt;/font&gt;" style="edgeLabel;html=1;align=center;verticalAlign=middle;resizable=0;points=[];fontSize=16;fontColor=#FFFFFF;" vertex="1" connectable="0" parent="468"><mxGeometry x="0.9524" y="8" relative="1" as="geometry"><mxPoint x="-9" as="offset"/></mxGeometry></mxCell><mxCell id="3" value="&lt;font style=&quot;font-size: 15px;&quot;&gt;کارمند&lt;/font&gt;" style="whiteSpace=wrap;html=1;align=center;fillColor=#0050ef;fontColor=#ffffff;strokeColor=none;rounded=1;fontSize=15;" parent="1" vertex="1"><mxGeometry x="600" y="580" width="100" height="40" as="geometry"/></mxCell><mxCell id="349" style="edgeStyle=none;html=1;exitX=0.5;exitY=1;exitDx=0;exitDy=0;entryX=0.5;entryY=0;entryDx=0;entryDy=0;strokeColor=default;strokeWidth=2;fontSize=15;fontColor=#000000;endArrow=none;endFill=0;" parent="1" source="4" target="8" edge="1"><mxGeometry relative="1" as="geometry"/></mxCell><mxCell id="350" value="" style="edgeStyle=none;html=1;strokeColor=default;strokeWidth=2;fontSize=15;fontColor=#000000;endArrow=none;endFill=0;exitX=0.5;exitY=1;exitDx=0;exitDy=0;" parent="1" source="4" target="14" edge="1"><mxGeometry relative="1" as="geometry"/></mxCell><mxCell id="4" value="ATM" style="whiteSpace=wrap;html=1;align=center;fillColor=#0050ef;fontColor=#ffffff;strokeColor=none;fontSize=14;labelBorderColor=none;rounded=1;strokeWidth=2;" parent="1" vertex="1"><mxGeometry x="534" y="805.25" width="100" height="40" as="geometry"/></mxCell><mxCell id="141" style="edgeStyle=none;html=1;exitX=0.25;exitY=1;exitDx=0;exitDy=0;entryX=0.5;entryY=0;entryDx=0;entryDy=0;fontSize=15;fontColor=#FFFFFF;fillColor=#f5f5f5;strokeColor=#FFFFFF;" parent="1" edge="1"><mxGeometry relative="1" as="geometry"><mxPoint x="105" y="355" as="sourcePoint"/></mxGeometry></mxCell><mxCell id="142" style="edgeStyle=none;html=1;exitX=0.75;exitY=1;exitDx=0;exitDy=0;fontSize=15;fontColor=#FFFFFF;fillColor=#f5f5f5;strokeColor=#FFFFFF;" parent="1" edge="1"><mxGeometry relative="1" as="geometry"><Array as="points"><mxPoint x="130" y="410"/></Array><mxPoint x="155" y="355" as="sourcePoint"/></mxGeometry></mxCell><mxCell id="143" style="edgeStyle=none;html=1;exitX=1;exitY=0.25;exitDx=0;exitDy=0;entryX=0.332;entryY=0.985;entryDx=0;entryDy=0;entryPerimeter=0;fontSize=15;fontColor=#FFFFFF;" parent="1" edge="1"><mxGeometry relative="1" as="geometry"><Array as="points"><mxPoint x="190" y="300"/></Array><mxPoint x="180" y="325" as="sourcePoint"/></mxGeometry></mxCell><mxCell id="144" style="edgeStyle=none;html=1;exitX=0.75;exitY=0;exitDx=0;exitDy=0;entryX=0.5;entryY=1;entryDx=0;entryDy=0;fontSize=15;fontColor=#FFFFFF;fillColor=#f5f5f5;strokeColor=#FFFFFF;" parent="1" edge="1"><mxGeometry relative="1" as="geometry"><Array as="points"><mxPoint x="130" y="290"/></Array><mxPoint x="155" y="315" as="sourcePoint"/></mxGeometry></mxCell><mxCell id="145" style="edgeStyle=none;html=1;exitX=0;exitY=0.5;exitDx=0;exitDy=0;entryX=0.5;entryY=0;entryDx=0;entryDy=0;fontSize=15;fontColor=#FFFFFF;fillColor=#f5f5f5;strokeColor=#FFFFFF;" parent="1" edge="1"><mxGeometry relative="1" as="geometry"><Array as="points"><mxPoint x="50" y="340"/></Array><mxPoint x="80" y="335" as="sourcePoint"/></mxGeometry></mxCell><mxCell id="93" style="edgeStyle=none;html=1;exitX=0.25;exitY=0;exitDx=0;exitDy=0;entryX=1;entryY=1;entryDx=0;entryDy=0;fontSize=14;fontColor=#FFFFFF;" parent="1" edge="1"><mxGeometry relative="1" as="geometry"><mxPoint x="285" y="580" as="sourcePoint"/></mxGeometry></mxCell><mxCell id="8" value="id" style="ellipse;whiteSpace=wrap;html=1;align=center;fontStyle=4;fontSize=15;rotation=0;strokeColor=default;fillColor=none;fontColor=#000000;strokeWidth=2;" parent="1" vertex="1"><mxGeometry x="597" y="896" width="65" height="30" as="geometry"/></mxCell><mxCell id="14" value="مقدار پول" style="ellipse;whiteSpace=wrap;html=1;align=center;fontSize=15;strokeColor=default;fillColor=none;fontColor=#000000;strokeWidth=2;" parent="1" vertex="1"><mxGeometry x="491" y="891" width="82" height="35" as="geometry"/></mxCell><mxCell id="39" value="نام" style="ellipse;whiteSpace=wrap;html=1;align=center;labelBackgroundColor=none;labelBorderColor=none;fontSize=15;fontColor=#000000;fillColor=none;strokeColor=default;strokeWidth=2;direction=south;" parent="1" vertex="1"><mxGeometry x="1017.75" y="711" width="60.25" height="36" as="geometry"/></mxCell><mxCell id="43" value="نوع بانک" style="ellipse;whiteSpace=wrap;html=1;align=center;labelBackgroundColor=none;labelBorderColor=none;fontSize=15;fontColor=#000000;fillColor=none;strokeColor=default;strokeWidth=2;" parent="1" vertex="1"><mxGeometry x="952" y="676.25" width="72" height="30" as="geometry"/></mxCell><mxCell id="202" value="1" style="edgeStyle=none;html=1;exitX=0.5;exitY=0;exitDx=0;exitDy=0;entryX=0;entryY=0.5;entryDx=0;entryDy=0;startArrow=none;endArrow=none;endFill=0;strokeWidth=2;strokeColor=default;" parent="1" source="215" target="201" edge="1"><mxGeometry relative="1" as="geometry"/></mxCell><mxCell id="237" style="edgeStyle=none;rounded=1;sketch=0;html=1;exitX=1;exitY=0;exitDx=0;exitDy=0;shadow=0;strokeColor=default;strokeWidth=2;endArrow=none;endFill=0;" parent="1" source="44" target="39" edge="1"><mxGeometry relative="1" as="geometry"/></mxCell><mxCell id="250" style="edgeStyle=none;html=1;exitX=0.75;exitY=0;exitDx=0;exitDy=0;entryX=0.5;entryY=1;entryDx=0;entryDy=0;strokeColor=default;strokeWidth=2;fontColor=#000000;endArrow=none;endFill=0;" parent="1" source="44" target="43" edge="1"><mxGeometry relative="1" as="geometry"/></mxCell><mxCell id="361" value="M" style="edgeStyle=none;html=1;exitX=0.5;exitY=1;exitDx=0;exitDy=0;strokeColor=default;strokeWidth=2;fontSize=15;fontColor=#000000;endArrow=none;endFill=0;" parent="1" source="44" target="360" edge="1"><mxGeometry relative="1" as="geometry"/></mxCell><mxCell id="44" value="بانک" style="shape=ext;margin=3;double=1;whiteSpace=wrap;html=1;align=center;labelBackgroundColor=none;labelBorderColor=none;fontSize=15;fontColor=#ffffff;fillColor=#0050ef;strokeColor=none;fontStyle=0;rounded=1;" parent="1" vertex="1"><mxGeometry x="880" y="770" width="100" height="40" as="geometry"/></mxCell><mxCell id="50" value="&lt;font color=&quot;#000000&quot;&gt;N&lt;/font&gt;" style="html=1;exitX=0.061;exitY=0.499;exitDx=0;exitDy=0;entryX=1;entryY=0.5;entryDx=0;entryDy=0;fontSize=15;fontColor=#FFFFFF;fillColor=#f5f5f5;strokeColor=default;strokeWidth=2;endArrow=none;endFill=0;exitPerimeter=0;" parent="1" source="253" target="346" edge="1"><mxGeometry relative="1" as="geometry"><mxPoint x="680" y="725.0000000000001" as="sourcePoint"/><mxPoint x="571" y="767.9999999999998" as="targetPoint"/></mxGeometry></mxCell><mxCell id="252" value="1" style="edgeStyle=orthogonalEdgeStyle;html=1;exitX=0.949;exitY=0.499;exitDx=0;exitDy=0;strokeColor=default;strokeWidth=2;fontSize=15;fontColor=default;endArrow=none;endFill=0;entryX=0.5;entryY=0;entryDx=0;entryDy=0;exitPerimeter=0;" parent="1" source="253" target="44" edge="1"><mxGeometry relative="1" as="geometry"><mxPoint x="938" y="766" as="targetPoint"/><mxPoint x="770" y="725.0000000000001" as="sourcePoint"/></mxGeometry></mxCell><mxCell id="54" value="نوع شعبه" style="ellipse;whiteSpace=wrap;html=1;fontSize=15;fontColor=#000000;labelBackgroundColor=none;labelBorderColor=none;fillColor=none;strokeColor=default;strokeWidth=2;" parent="1" vertex="1"><mxGeometry x="362" y="602" width="80" height="40" as="geometry"/></mxCell><mxCell id="56" value="کد شعبه" style="ellipse;whiteSpace=wrap;html=1;align=center;fontStyle=4;labelBackgroundColor=none;labelBorderColor=none;fontSize=15;fontColor=#000000;fillColor=none;strokeColor=default;strokeWidth=2;" parent="1" vertex="1"><mxGeometry x="232" y="645" width="71" height="38" as="geometry"/></mxCell><mxCell id="86" value="کد کارمندی" style="ellipse;whiteSpace=wrap;html=1;align=center;fontStyle=4;labelBackgroundColor=none;labelBorderColor=none;fontSize=15;fontColor=#000000;fillColor=none;strokeColor=default;strokeWidth=2;" parent="1" vertex="1"><mxGeometry x="513" y="481" width="72" height="44" as="geometry"/></mxCell><mxCell id="273" style="edgeStyle=none;html=1;exitX=0;exitY=0.5;exitDx=0;exitDy=0;entryX=0.5;entryY=1;entryDx=0;entryDy=0;strokeColor=default;strokeWidth=2;fontSize=15;fontColor=#000000;endArrow=none;endFill=0;" parent="1" source="87" target="272" edge="1"><mxGeometry relative="1" as="geometry"/></mxCell><mxCell id="274" style="edgeStyle=none;html=1;exitX=0;exitY=0.5;exitDx=0;exitDy=0;entryX=0.5;entryY=1;entryDx=0;entryDy=0;strokeColor=default;strokeWidth=2;fontSize=15;fontColor=#000000;endArrow=none;endFill=0;" parent="1" source="87" target="271" edge="1"><mxGeometry relative="1" as="geometry"/></mxCell><mxCell id="87" value="نام و نام خانوادگی" style="ellipse;whiteSpace=wrap;html=1;align=center;labelBackgroundColor=none;labelBorderColor=none;fontSize=15;fontColor=#000000;direction=south;fillColor=none;strokeColor=default;strokeWidth=2;" parent="1" vertex="1"><mxGeometry x="726" y="476.57" width="99.17" height="52.87" as="geometry"/></mxCell><mxCell id="88" value="حقوق" style="ellipse;whiteSpace=wrap;html=1;align=center;labelBackgroundColor=none;labelBorderColor=none;fontSize=15;fontColor=#000000;fillColor=none;strokeColor=default;strokeWidth=2;" parent="1" vertex="1"><mxGeometry x="580" y="638" width="51" height="32" as="geometry"/></mxCell><mxCell id="94" value="سمت" style="ellipse;whiteSpace=wrap;html=1;align=center;labelBackgroundColor=none;labelBorderColor=none;fontSize=15;fontColor=#000000;fillColor=none;strokeColor=default;strokeWidth=2;" parent="1" vertex="1"><mxGeometry x="621" y="662.75" width="58" height="34.5" as="geometry"/></mxCell><mxCell id="222" style="edgeStyle=none;html=1;exitX=1;exitY=0;exitDx=0;exitDy=0;entryX=0;entryY=0.5;entryDx=0;entryDy=0;" parent="1" edge="1"><mxGeometry relative="1" as="geometry"><mxPoint x="222.5" y="442.5" as="sourcePoint"/></mxGeometry></mxCell><mxCell id="224" style="edgeStyle=none;html=1;entryX=0;entryY=0.5;entryDx=0;entryDy=0;" parent="1" edge="1"><mxGeometry relative="1" as="geometry"><mxPoint x="237.01219512195075" y="452.86585365853625" as="sourcePoint"/></mxGeometry></mxCell><mxCell id="208" style="edgeStyle=none;html=1;exitX=1;exitY=0.5;exitDx=0;exitDy=0;strokeColor=default;endArrow=none;endFill=0;strokeWidth=2;entryX=0;entryY=0.5;entryDx=0;entryDy=0;" parent="1" source="201" target="205" edge="1"><mxGeometry relative="1" as="geometry"/></mxCell><mxCell id="209" style="edgeStyle=none;html=1;exitX=1;exitY=0.5;exitDx=0;exitDy=0;entryX=0;entryY=0.5;entryDx=0;entryDy=0;strokeColor=default;endArrow=none;endFill=0;strokeWidth=2;" parent="1" source="201" target="206" edge="1"><mxGeometry relative="1" as="geometry"/></mxCell><mxCell id="210" style="edgeStyle=none;html=1;exitX=1;exitY=0.5;exitDx=0;exitDy=0;entryX=0;entryY=0.5;entryDx=0;entryDy=0;strokeColor=default;endArrow=none;endFill=0;strokeWidth=2;" parent="1" source="201" target="207" edge="1"><mxGeometry relative="1" as="geometry"/></mxCell><mxCell id="212" style="edgeStyle=none;html=1;strokeColor=default;strokeWidth=2;endArrow=none;endFill=0;exitX=0.48;exitY=1;exitDx=0;exitDy=0;exitPerimeter=0;" parent="1" source="201" target="211" edge="1"><mxGeometry relative="1" as="geometry"><mxPoint x="1223" y="815" as="sourcePoint"/></mxGeometry></mxCell><mxCell id="214" style="edgeStyle=none;html=1;exitX=0.5;exitY=0;exitDx=0;exitDy=0;entryX=0.258;entryY=1.046;entryDx=0;entryDy=0;entryPerimeter=0;strokeColor=default;endArrow=none;endFill=0;strokeWidth=2;" parent="1" source="201" target="213" edge="1"><mxGeometry relative="1" as="geometry"/></mxCell><mxCell id="238" style="edgeStyle=none;html=1;exitX=0.5;exitY=0;exitDx=0;exitDy=0;entryX=0.56;entryY=1.038;entryDx=0;entryDy=0;entryPerimeter=0;strokeColor=default;fontColor=#000000;strokeWidth=2;endArrow=none;endFill=0;" parent="1" source="201" target="203" edge="1"><mxGeometry relative="1" as="geometry"/></mxCell><mxCell id="437" style="edgeStyle=none;html=1;exitX=0.5;exitY=0;exitDx=0;exitDy=0;entryX=1;entryY=1;entryDx=0;entryDy=0;strokeColor=default;strokeWidth=2;fontSize=15;fontColor=#000000;endArrow=none;endFill=0;" parent="1" source="201" target="436" edge="1"><mxGeometry relative="1" as="geometry"/></mxCell><mxCell id="201" value="رئیس بانک" style="shape=ext;margin=3;double=1;whiteSpace=wrap;html=1;align=center;labelBackgroundColor=none;labelBorderColor=none;fontSize=15;fontColor=#ffffff;fillColor=#0050ef;strokeColor=default;fontStyle=0;strokeWidth=2;rounded=1;" parent="1" vertex="1"><mxGeometry x="1175" y="770" width="100" height="40" as="geometry"/></mxCell><mxCell id="247" style="edgeStyle=none;html=1;exitX=0.5;exitY=0;exitDx=0;exitDy=0;entryX=0.428;entryY=1.002;entryDx=0;entryDy=0;entryPerimeter=0;strokeColor=default;strokeWidth=2;fontColor=#000000;endArrow=none;endFill=0;" parent="1" source="203" target="245" edge="1"><mxGeometry relative="1" as="geometry"/></mxCell><mxCell id="248" style="edgeStyle=none;html=1;exitX=0.5;exitY=0;exitDx=0;exitDy=0;entryX=0.577;entryY=1.07;entryDx=0;entryDy=0;entryPerimeter=0;strokeColor=default;strokeWidth=2;fontColor=#000000;endArrow=none;endFill=0;" parent="1" source="203" target="246" edge="1"><mxGeometry relative="1" as="geometry"/></mxCell><mxCell id="203" value="نام و نام خانوادگی" style="ellipse;whiteSpace=wrap;html=1;align=center;labelBackgroundColor=none;labelBorderColor=none;fontSize=15;fontColor=#000000;fillColor=none;strokeColor=default;strokeWidth=2;" parent="1" vertex="1"><mxGeometry x="1147" y="635" width="100" height="40" as="geometry"/></mxCell><mxCell id="205" value="کد ملی" style="ellipse;whiteSpace=wrap;html=1;align=center;labelBackgroundColor=none;labelBorderColor=none;fontSize=15;fontColor=#000000;fillColor=none;strokeColor=default;strokeWidth=2;fontStyle=4;verticalAlign=middle;horizontal=1;" parent="1" vertex="1"><mxGeometry x="1350" y="720" width="100" height="40" as="geometry"/></mxCell><mxCell id="206" value="کد پرسنلی" style="ellipse;whiteSpace=wrap;html=1;align=center;labelBackgroundColor=none;labelBorderColor=none;fontSize=15;fontColor=#000000;fillColor=none;strokeColor=default;strokeWidth=2;fontStyle=4" parent="1" vertex="1"><mxGeometry x="1370" y="770" width="100" height="40" as="geometry"/></mxCell><mxCell id="207" value="حقوق" style="ellipse;whiteSpace=wrap;html=1;align=center;labelBackgroundColor=none;labelBorderColor=none;fontSize=15;fontColor=#000000;fillColor=none;strokeColor=default;strokeWidth=2;" parent="1" vertex="1"><mxGeometry x="1350" y="820" width="100" height="40" as="geometry"/></mxCell><mxCell id="211" value="سابقه بیمه کار" style="ellipse;whiteSpace=wrap;html=1;align=center;labelBackgroundColor=none;labelBorderColor=none;fontSize=15;fontColor=#000000;fillColor=none;strokeColor=default;dashed=1;strokeWidth=2;" parent="1" vertex="1"><mxGeometry x="1129" y="860" width="100" height="40" as="geometry"/></mxCell><mxCell id="242" style="edgeStyle=none;html=1;exitX=1;exitY=0.5;exitDx=0;exitDy=0;strokeColor=default;strokeWidth=2;fontColor=#000000;endArrow=none;endFill=0;" parent="1" source="213" target="240" edge="1"><mxGeometry relative="1" as="geometry"/></mxCell><mxCell id="243" style="edgeStyle=none;html=1;exitX=1;exitY=0.5;exitDx=0;exitDy=0;entryX=0.14;entryY=0.965;entryDx=0;entryDy=0;entryPerimeter=0;strokeColor=default;strokeWidth=2;fontColor=#000000;endArrow=none;endFill=0;" parent="1" source="213" target="239" edge="1"><mxGeometry relative="1" as="geometry"/></mxCell><mxCell id="244" style="edgeStyle=none;html=1;exitX=1;exitY=0.5;exitDx=0;exitDy=0;entryX=0;entryY=0;entryDx=0;entryDy=0;strokeColor=default;strokeWidth=2;fontColor=#000000;endArrow=none;endFill=0;" parent="1" source="213" target="241" edge="1"><mxGeometry relative="1" as="geometry"/></mxCell><mxCell id="213" value="تاریخ شروع کار" style="ellipse;whiteSpace=wrap;html=1;align=center;labelBackgroundColor=none;labelBorderColor=none;fontSize=15;fontColor=#000000;fillColor=none;strokeColor=default;strokeWidth=2;" parent="1" vertex="1"><mxGeometry x="1260" y="640" width="100" height="40" as="geometry"/></mxCell><mxCell id="216" value="1" style="edgeStyle=none;html=1;exitX=1;exitY=0.5;exitDx=0;exitDy=0;endArrow=none;strokeColor=default;strokeWidth=2;endFill=0;" parent="1" source="44" target="215" edge="1"><mxGeometry relative="1" as="geometry"><mxPoint x="980" y="790" as="sourcePoint"/><mxPoint x="1175" y="790" as="targetPoint"/></mxGeometry></mxCell><mxCell id="215" value="دارد" style="shape=rhombus;double=1;perimeter=rhombusPerimeter;whiteSpace=wrap;html=1;align=center;fontSize=15;fillColor=#60a917;fontColor=#ffffff;strokeColor=default;direction=south;rounded=1;strokeWidth=2;" parent="1" vertex="1"><mxGeometry x="1055" y="757.5" width="70" height="65" as="geometry"/></mxCell><mxCell id="217" value="کد ملی" style="ellipse;whiteSpace=wrap;html=1;align=center;labelBackgroundColor=none;labelBorderColor=none;fontSize=15;fontColor=#000000;fillColor=none;strokeColor=default;strokeWidth=2;fontStyle=4" parent="1" vertex="1"><mxGeometry x="679" y="639" width="63" height="37.25" as="geometry"/></mxCell><mxCell id="239" value="روز" style="ellipse;whiteSpace=wrap;html=1;align=center;labelBackgroundColor=none;labelBorderColor=none;fontSize=15;fontColor=#000000;fillColor=none;strokeColor=default;strokeWidth=2;" parent="1" vertex="1"><mxGeometry x="1387" y="616.25" width="45" height="30" as="geometry"/></mxCell><mxCell id="240" value="ماه&lt;span style=&quot;font-family: monospace; font-size: 0px; text-align: start;&quot;&gt;%3CmxGraphModel%3E%3Croot%3E%3CmxCell%20id%3D%220%22%2F%3E%3CmxCell%20id%3D%221%22%20parent%3D%220%22%2F%3E%3CmxCell%20id%3D%222%22%20value%3D%22%D8%B1%D9%88%D8%B2%22%20style%3D%22ellipse%3BwhiteSpace%3Dwrap%3Bhtml%3D1%3Balign%3Dcenter%3BlabelBackgroundColor%3Dnone%3BlabelBorderColor%3Dnone%3BfontSize%3D15%3BfontColor%3D%23333333%3BfillColor%3D%23f5f5f5%3BstrokeColor%3D%23666666%3B%22%20vertex%3D%221%22%20parent%3D%221%22%3E%3CmxGeometry%20x%3D%22175%22%20y%3D%221040%22%20width%3D%2280%22%20height%3D%2240%22%20as%3D%22geometry%22%2F%3E%3C%2FmxCell%3E%3C%2Froot%3E%3C%2FmxGraphModel%3E&lt;/span&gt;&lt;span style=&quot;font-family: monospace; font-size: 0px; text-align: start;&quot;&gt;%3CmxGraphModel%3E%3Croot%3E%3CmxCell%20id%3D%220%22%2F%3E%3CmxCell%20id%3D%221%22%20parent%3D%220%22%2F%3E%3CmxCell%20id%3D%222%22%20value%3D%22%D8%B1%D9%88%D8%B2%22%20style%3D%22ellipse%3BwhiteSpace%3Dwrap%3Bhtml%3D1%3Balign%3Dcenter%3BlabelBackgroundColor%3Dnone%3BlabelBorderColor%3Dnone%3BfontSize%3D15%3BfontColor%3D%23333333%3BfillColor%3D%23f5f5f5%3BstrokeColor%3D%23666666%3B%22%20vertex%3D%221%22%20parent%3D%221%22%3E%3CmxGeometry%20x%3D%22175%22%20y%3D%221040%22%20width%3D%2280%22%20height%3D%2240%22%20as%3D%22geometry%22%2F%3E%3C%2FmxCell%3E%3C%2Froot%3E%3C%2FmxGraphModel%3E&lt;/span&gt;" style="ellipse;whiteSpace=wrap;html=1;align=center;labelBackgroundColor=none;labelBorderColor=none;fontSize=15;fontColor=#000000;fillColor=none;strokeColor=default;strokeWidth=2;" parent="1" vertex="1"><mxGeometry x="1425" y="646.25" width="45" height="30" as="geometry"/></mxCell><mxCell id="241" value="سال" style="ellipse;whiteSpace=wrap;html=1;align=center;labelBackgroundColor=none;labelBorderColor=none;fontSize=15;fontColor=#000000;fillColor=none;strokeColor=default;strokeWidth=2;" parent="1" vertex="1"><mxGeometry x="1384.5" y="675" width="45" height="30" as="geometry"/></mxCell><mxCell id="245" value="نام" style="ellipse;whiteSpace=wrap;html=1;align=center;labelBackgroundColor=none;labelBorderColor=none;fontSize=15;fontColor=#000000;fillColor=none;strokeColor=default;strokeWidth=2;" parent="1" vertex="1"><mxGeometry x="1215" y="580" width="45" height="28" as="geometry"/></mxCell><mxCell id="246" value="فامیل" style="ellipse;whiteSpace=wrap;html=1;align=center;labelBackgroundColor=none;labelBorderColor=none;fontSize=15;fontColor=#000000;fillColor=none;strokeColor=default;strokeWidth=2;" parent="1" vertex="1"><mxGeometry x="1144" y="580" width="45" height="28" as="geometry"/></mxCell><mxCell id="253" value="&lt;font style=&quot;font-size: 15px;&quot;&gt;دارد&lt;/font&gt;" style="shape=rhombus;perimeter=rhombusPerimeter;whiteSpace=wrap;html=1;align=center;labelBackgroundColor=none;labelBorderColor=none;fontSize=14;fontColor=#ffffff;fillColor=#4D9900;strokeColor=none;rounded=1;" parent="1" vertex="1"><mxGeometry x="684.5" y="693" width="81" height="64.5" as="geometry"/></mxCell><mxCell id="255" value="1" style="edgeStyle=orthogonalEdgeStyle;html=1;exitX=1;exitY=0.5;exitDx=0;exitDy=0;entryX=0;entryY=0.5;entryDx=0;entryDy=0;strokeColor=default;strokeWidth=2;fontSize=15;fontColor=#000000;endArrow=none;endFill=0;" parent="1" source="254" target="44" edge="1"><mxGeometry relative="1" as="geometry"/></mxCell><mxCell id="348" value="N" style="edgeStyle=none;html=1;exitX=0;exitY=0.5;exitDx=0;exitDy=0;entryX=1;entryY=0.5;entryDx=0;entryDy=0;strokeColor=default;strokeWidth=2;fontSize=15;fontColor=#000000;endArrow=none;endFill=0;" parent="1" source="254" target="4" edge="1"><mxGeometry relative="1" as="geometry"/></mxCell><mxCell id="254" value="&lt;font style=&quot;font-size: 15px;&quot;&gt;دارد&lt;/font&gt;" style="shape=rhombus;perimeter=rhombusPerimeter;whiteSpace=wrap;html=1;align=center;labelBackgroundColor=none;labelBorderColor=none;fontSize=14;fontColor=#ffffff;fillColor=#4D9900;strokeColor=none;rounded=1;" parent="1" vertex="1"><mxGeometry x="734" y="793" width="81" height="64.5" as="geometry"/></mxCell><mxCell id="258" value="N" style="edgeStyle=orthogonalEdgeStyle;html=1;strokeColor=default;strokeWidth=2;fontSize=15;fontColor=#000000;endArrow=none;endFill=0;" parent="1" source="3" target="257" edge="1"><mxGeometry relative="1" as="geometry"><mxPoint x="700" y="600.0344827586207" as="sourcePoint"/><mxPoint x="930" y="770" as="targetPoint"/></mxGeometry></mxCell><mxCell id="281" style="edgeStyle=none;html=1;exitX=1;exitY=0;exitDx=0;exitDy=0;entryX=0.5;entryY=1;entryDx=0;entryDy=0;strokeColor=default;strokeWidth=2;fontSize=15;fontColor=#000000;endArrow=none;endFill=0;" parent="1" source="257" target="278" edge="1"><mxGeometry relative="1" as="geometry"/></mxCell><mxCell id="257" value="&lt;font style=&quot;font-size: 15px;&quot;&gt;دارد&lt;/font&gt;" style="shape=rhombus;perimeter=rhombusPerimeter;whiteSpace=wrap;html=1;align=center;labelBackgroundColor=none;labelBorderColor=none;fontSize=14;fontColor=#ffffff;fillColor=#4D9900;strokeColor=none;rounded=1;" parent="1" vertex="1"><mxGeometry x="889.5" y="567.75" width="81" height="64.5" as="geometry"/></mxCell><mxCell id="261" value="سال" style="ellipse;whiteSpace=wrap;html=1;align=center;labelBackgroundColor=none;labelBorderColor=none;fontSize=15;fontColor=#000000;fillColor=none;strokeColor=default;strokeWidth=2;" parent="1" vertex="1"><mxGeometry x="962" y="400" width="45" height="30" as="geometry"/></mxCell><mxCell id="270" value="سابقه بیمه کار" style="ellipse;whiteSpace=wrap;html=1;align=center;labelBackgroundColor=none;labelBorderColor=none;fontSize=15;fontColor=#000000;fillColor=none;strokeColor=default;strokeWidth=2;dashed=1;" parent="1" vertex="1"><mxGeometry x="612" y="457" width="80" height="40" as="geometry"/></mxCell><mxCell id="271" value="نام" style="ellipse;whiteSpace=wrap;html=1;align=center;labelBackgroundColor=none;labelBorderColor=none;fontSize=15;fontColor=#000000;fillColor=none;strokeColor=default;strokeWidth=2;" parent="1" vertex="1"><mxGeometry x="805" y="411" width="45" height="28" as="geometry"/></mxCell><mxCell id="272" value="فامیل" style="ellipse;whiteSpace=wrap;html=1;align=center;labelBackgroundColor=none;labelBorderColor=none;fontSize=15;fontColor=#000000;fillColor=none;strokeColor=default;strokeWidth=2;" parent="1" vertex="1"><mxGeometry x="734" y="411" width="45" height="28" as="geometry"/></mxCell><mxCell id="275" style="html=1;exitX=0.5;exitY=0;exitDx=0;exitDy=0;entryX=0.5;entryY=1;entryDx=0;entryDy=0;strokeColor=default;strokeWidth=2;fontSize=15;fontColor=#000000;endArrow=none;endFill=0;" parent="1" source="278" target="279" edge="1"><mxGeometry relative="1" as="geometry"/></mxCell><mxCell id="276" style="edgeStyle=none;html=1;exitX=0.5;exitY=0;exitDx=0;exitDy=0;entryX=0.5;entryY=1;entryDx=0;entryDy=0;strokeColor=default;strokeWidth=2;fontSize=15;fontColor=#000000;endArrow=none;endFill=0;" parent="1" source="278" target="280" edge="1"><mxGeometry relative="1" as="geometry"/></mxCell><mxCell id="277" style="edgeStyle=none;html=1;exitX=0.5;exitY=0;exitDx=0;exitDy=0;entryX=0.5;entryY=1;entryDx=0;entryDy=0;strokeColor=default;strokeWidth=2;fontSize=15;fontColor=#000000;endArrow=none;endFill=0;" parent="1" source="278" target="261" edge="1"><mxGeometry relative="1" as="geometry"><mxPoint x="986.25" y="432.4999999999999" as="targetPoint"/></mxGeometry></mxCell><mxCell id="278" value="تاریخ شروع کار" style="ellipse;whiteSpace=wrap;html=1;align=center;labelBackgroundColor=none;labelBorderColor=none;fontSize=15;fontColor=#000000;fillColor=none;strokeColor=default;strokeWidth=2;" parent="1" vertex="1"><mxGeometry x="980.75" y="484.5" width="112" height="51" as="geometry"/></mxCell><mxCell id="279" value="روز" style="ellipse;whiteSpace=wrap;html=1;align=center;labelBackgroundColor=none;labelBorderColor=none;fontSize=15;fontColor=#000000;fillColor=none;strokeColor=default;strokeWidth=2;" parent="1" vertex="1"><mxGeometry x="1067.75" y="404.5" width="45" height="30" as="geometry"/></mxCell><mxCell id="280" value="ماه&lt;span style=&quot;font-family: monospace; font-size: 0px; text-align: start;&quot;&gt;%3CmxGraphModel%3E%3Croot%3E%3CmxCell%20id%3D%220%22%2F%3E%3CmxCell%20id%3D%221%22%20parent%3D%220%22%2F%3E%3CmxCell%20id%3D%222%22%20value%3D%22%D8%B1%D9%88%D8%B2%22%20style%3D%22ellipse%3BwhiteSpace%3Dwrap%3Bhtml%3D1%3Balign%3Dcenter%3BlabelBackgroundColor%3Dnone%3BlabelBorderColor%3Dnone%3BfontSize%3D15%3BfontColor%3D%23333333%3BfillColor%3D%23f5f5f5%3BstrokeColor%3D%23666666%3B%22%20vertex%3D%221%22%20parent%3D%221%22%3E%3CmxGeometry%20x%3D%22175%22%20y%3D%221040%22%20width%3D%2280%22%20height%3D%2240%22%20as%3D%22geometry%22%2F%3E%3C%2FmxCell%3E%3C%2Froot%3E%3C%2FmxGraphModel%3E&lt;/span&gt;&lt;span style=&quot;font-family: monospace; font-size: 0px; text-align: start;&quot;&gt;%3CmxGraphModel%3E%3Croot%3E%3CmxCell%20id%3D%220%22%2F%3E%3CmxCell%20id%3D%221%22%20parent%3D%220%22%2F%3E%3CmxCell%20id%3D%222%22%20value%3D%22%D8%B1%D9%88%D8%B2%22%20style%3D%22ellipse%3BwhiteSpace%3Dwrap%3Bhtml%3D1%3Balign%3Dcenter%3BlabelBackgroundColor%3Dnone%3BlabelBorderColor%3Dnone%3BfontSize%3D15%3BfontColor%3D%23333333%3BfillColor%3D%23f5f5f5%3BstrokeColor%3D%23666666%3B%22%20vertex%3D%221%22%20parent%3D%221%22%3E%3CmxGeometry%20x%3D%22175%22%20y%3D%221040%22%20width%3D%2280%22%20height%3D%2240%22%20as%3D%22geometry%22%2F%3E%3C%2FmxCell%3E%3C%2Froot%3E%3C%2FmxGraphModel%3E&lt;/span&gt;" style="ellipse;whiteSpace=wrap;html=1;align=center;labelBackgroundColor=none;labelBorderColor=none;fontSize=15;fontColor=#000000;fillColor=none;strokeColor=default;strokeWidth=2;" parent="1" vertex="1"><mxGeometry x="1014.75" y="394.5" width="45" height="30" as="geometry"/></mxCell><mxCell id="282" value="&lt;font style=&quot;font-size: 15px;&quot;&gt;آدرس&lt;/font&gt;" style="ellipse;shape=doubleEllipse;margin=3;whiteSpace=wrap;html=1;align=center;rounded=1;labelBackgroundColor=none;strokeColor=default;strokeWidth=2;fontSize=18;fontColor=#000000;fillColor=none;" parent="1" vertex="1"><mxGeometry x="196" y="727.5" width="74.5" height="44.5" as="geometry"/></mxCell><mxCell id="283" value="&lt;font style=&quot;font-size: 15px;&quot;&gt;شماره تماس&lt;/font&gt;" style="ellipse;shape=doubleEllipse;margin=3;whiteSpace=wrap;html=1;align=center;rounded=1;labelBackgroundColor=none;strokeColor=default;strokeWidth=2;fontSize=18;fontColor=#000000;fillColor=none;" parent="1" vertex="1"><mxGeometry x="200" y="680.5" width="87" height="39.5" as="geometry"/></mxCell><mxCell id="290" value="مدیر شعبه" style="ellipse;whiteSpace=wrap;html=1;fontSize=15;fontColor=#000000;labelBackgroundColor=none;labelBorderColor=none;fillColor=none;strokeColor=default;strokeWidth=2;" parent="1" vertex="1"><mxGeometry x="282" y="611.25" width="80" height="40" as="geometry"/></mxCell><mxCell id="357" style="edgeStyle=none;html=1;exitX=0.5;exitY=1;exitDx=0;exitDy=0;strokeColor=default;strokeWidth=2;fontSize=15;fontColor=#000000;endArrow=none;endFill=0;" parent="1" source="332" target="356" edge="1"><mxGeometry relative="1" as="geometry"/></mxCell><mxCell id="366" style="edgeStyle=none;html=1;exitX=1;exitY=0;exitDx=0;exitDy=0;entryX=0.5;entryY=1;entryDx=0;entryDy=0;strokeColor=default;strokeWidth=2;fontSize=15;fontColor=#000000;endArrow=none;endFill=0;" parent="1" source="332" target="336" edge="1"><mxGeometry relative="1" as="geometry"/></mxCell><mxCell id="368" style="edgeStyle=none;html=1;exitX=0;exitY=0;exitDx=0;exitDy=0;entryX=1;entryY=1;entryDx=0;entryDy=0;strokeColor=default;strokeWidth=2;fontSize=15;fontColor=#000000;endArrow=none;endFill=0;" parent="1" source="332" target="364" edge="1"><mxGeometry relative="1" as="geometry"/></mxCell><mxCell id="369" style="edgeStyle=none;html=1;exitX=0;exitY=0.5;exitDx=0;exitDy=0;entryX=1;entryY=0.5;entryDx=0;entryDy=0;strokeColor=default;strokeWidth=2;fontSize=15;fontColor=#000000;endArrow=none;endFill=0;" parent="1" source="332" target="365" edge="1"><mxGeometry relative="1" as="geometry"/></mxCell><mxCell id="370" style="edgeStyle=none;html=1;exitX=0;exitY=1;exitDx=0;exitDy=0;entryX=1;entryY=0.5;entryDx=0;entryDy=0;strokeColor=default;strokeWidth=2;fontSize=15;fontColor=#000000;endArrow=none;endFill=0;" parent="1" source="332" target="341" edge="1"><mxGeometry relative="1" as="geometry"/></mxCell><mxCell id="371" style="edgeStyle=none;html=1;exitX=1;exitY=0.5;exitDx=0;exitDy=0;entryX=0;entryY=0.5;entryDx=0;entryDy=0;strokeColor=default;strokeWidth=2;fontSize=15;fontColor=#000000;endArrow=none;endFill=0;" parent="1" source="332" target="367" edge="1"><mxGeometry relative="1" as="geometry"/></mxCell><mxCell id="397" value="M" style="edgeStyle=none;html=1;exitX=1;exitY=1;exitDx=0;exitDy=0;entryX=0;entryY=1;entryDx=0;entryDy=0;strokeColor=default;strokeWidth=2;fontSize=15;fontColor=#000000;endArrow=none;endFill=0;" parent="1" source="332" target="396" edge="1"><mxGeometry x="-0.0485" y="2" relative="1" as="geometry"><Array as="points"><mxPoint x="1027" y="1033"/></Array><mxPoint as="offset"/></mxGeometry></mxCell><mxCell id="332" value="مشتری" style="whiteSpace=wrap;html=1;align=center;fillColor=#0050ef;fontColor=#ffffff;strokeColor=none;fontSize=15;rounded=1;" parent="1" vertex="1"><mxGeometry x="880" y="954" width="100" height="40" as="geometry"/></mxCell><mxCell id="336" value="کد ملی" style="ellipse;whiteSpace=wrap;html=1;align=center;fontStyle=4;labelBackgroundColor=none;labelBorderColor=none;fontSize=15;fontColor=#000000;fillColor=none;strokeColor=default;strokeWidth=2;" parent="1" vertex="1"><mxGeometry x="986.75" y="896" width="62" height="37" as="geometry"/></mxCell><mxCell id="372" style="edgeStyle=none;html=1;exitX=0;exitY=1;exitDx=0;exitDy=0;entryX=0.5;entryY=0;entryDx=0;entryDy=0;strokeColor=default;strokeWidth=2;fontSize=15;fontColor=#000000;endArrow=none;endFill=0;" parent="1" source="337" target="342" edge="1"><mxGeometry relative="1" as="geometry"/></mxCell><mxCell id="373" style="edgeStyle=none;html=1;exitX=0.5;exitY=1;exitDx=0;exitDy=0;entryX=0.5;entryY=0;entryDx=0;entryDy=0;strokeColor=default;strokeWidth=2;fontSize=15;fontColor=#000000;endArrow=none;endFill=0;" parent="1" source="337" target="344" edge="1"><mxGeometry relative="1" as="geometry"/></mxCell><mxCell id="374" style="edgeStyle=none;html=1;exitX=1;exitY=1;exitDx=0;exitDy=0;entryX=0.5;entryY=0;entryDx=0;entryDy=0;strokeColor=default;strokeWidth=2;fontSize=15;fontColor=#000000;endArrow=none;endFill=0;" parent="1" source="337" target="343" edge="1"><mxGeometry relative="1" as="geometry"/></mxCell><mxCell id="391" style="edgeStyle=none;html=1;exitX=1;exitY=0.5;exitDx=0;exitDy=0;entryX=0;entryY=0.5;entryDx=0;entryDy=0;strokeColor=default;strokeWidth=2;fontSize=15;fontColor=#000000;endArrow=none;endFill=0;" parent="1" source="337" target="390" edge="1"><mxGeometry relative="1" as="geometry"/></mxCell><mxCell id="392" style="edgeStyle=none;html=1;exitX=0;exitY=0.5;exitDx=0;exitDy=0;entryX=1;entryY=0.5;entryDx=0;entryDy=0;strokeColor=default;strokeWidth=2;fontSize=15;fontColor=#000000;endArrow=none;endFill=0;" parent="1" source="337" target="389" edge="1"><mxGeometry relative="1" as="geometry"/></mxCell><mxCell id="337" value="&lt;span style=&quot;font-size: 15px;&quot;&gt;وام&lt;/span&gt;" style="whiteSpace=wrap;html=1;align=center;fillColor=#0050ef;fontColor=#ffffff;strokeColor=none;rounded=1;" parent="1" vertex="1"><mxGeometry x="880" y="1211" width="100" height="40" as="geometry"/></mxCell><mxCell id="440" style="edgeStyle=none;html=1;exitX=0;exitY=0.5;exitDx=0;exitDy=0;entryX=1;entryY=0.5;entryDx=0;entryDy=0;strokeColor=default;strokeWidth=2;fontSize=15;fontColor=#000000;endArrow=none;endFill=0;" parent="1" source="341" target="439" edge="1"><mxGeometry relative="1" as="geometry"/></mxCell><mxCell id="441" style="edgeStyle=none;html=1;exitX=0;exitY=0.5;exitDx=0;exitDy=0;entryX=1;entryY=0.5;entryDx=0;entryDy=0;strokeColor=default;strokeWidth=2;fontSize=15;fontColor=#000000;endArrow=none;endFill=0;" parent="1" source="341" target="438" edge="1"><mxGeometry relative="1" as="geometry"/></mxCell><mxCell id="341" value="&lt;font style=&quot;font-size: 15px;&quot;&gt;نام و نام خانوادگی&lt;/font&gt;" style="ellipse;whiteSpace=wrap;html=1;align=center;labelBackgroundColor=none;labelBorderColor=none;fontSize=14;fontColor=#000000;fillColor=none;strokeColor=default;strokeWidth=2;" parent="1" vertex="1"><mxGeometry x="727" y="977" width="106" height="56" as="geometry"/></mxCell><mxCell id="342" value="مقدار وام" style="ellipse;whiteSpace=wrap;html=1;align=center;labelBackgroundColor=none;labelBorderColor=none;fontSize=15;fontColor=#000000;fillColor=none;strokeColor=#000000;strokeWidth=2;" parent="1" vertex="1"><mxGeometry x="767" y="1302" width="90" height="40" as="geometry"/></mxCell><mxCell id="386" style="edgeStyle=none;html=1;exitX=1;exitY=1;exitDx=0;exitDy=0;entryX=0.5;entryY=0;entryDx=0;entryDy=0;strokeColor=default;strokeWidth=2;fontSize=15;fontColor=#000000;endArrow=none;endFill=0;" parent="1" source="343" target="383" edge="1"><mxGeometry relative="1" as="geometry"/></mxCell><mxCell id="387" style="edgeStyle=none;html=1;exitX=0.5;exitY=1;exitDx=0;exitDy=0;entryX=0.5;entryY=0;entryDx=0;entryDy=0;strokeColor=default;strokeWidth=2;fontSize=15;fontColor=#000000;endArrow=none;endFill=0;" parent="1" source="343" target="381" edge="1"><mxGeometry relative="1" as="geometry"/></mxCell><mxCell id="388" style="edgeStyle=none;html=1;exitX=1;exitY=0.5;exitDx=0;exitDy=0;entryX=0.5;entryY=0;entryDx=0;entryDy=0;strokeColor=default;strokeWidth=2;fontSize=15;fontColor=#000000;endArrow=none;endFill=0;" parent="1" source="343" target="382" edge="1"><mxGeometry relative="1" as="geometry"/></mxCell><mxCell id="343" value="تاریخ گرفتن وام" style="ellipse;whiteSpace=wrap;html=1;align=center;labelBackgroundColor=none;labelBorderColor=none;fontSize=15;fontColor=#000000;fillColor=none;strokeColor=#000000;strokeWidth=2;" parent="1" vertex="1"><mxGeometry x="994.87" y="1287" width="103.88" height="58" as="geometry"/></mxCell><mxCell id="378" style="edgeStyle=none;html=1;exitX=0.5;exitY=1;exitDx=0;exitDy=0;entryX=0.5;entryY=0;entryDx=0;entryDy=0;strokeColor=default;strokeWidth=2;fontSize=15;fontColor=#000000;endArrow=none;endFill=0;" parent="1" source="344" target="377" edge="1"><mxGeometry relative="1" as="geometry"/></mxCell><mxCell id="379" style="edgeStyle=none;html=1;exitX=0.5;exitY=1;exitDx=0;exitDy=0;entryX=0.5;entryY=0;entryDx=0;entryDy=0;strokeColor=default;strokeWidth=2;fontSize=15;fontColor=#000000;endArrow=none;endFill=0;" parent="1" source="344" target="375" edge="1"><mxGeometry relative="1" as="geometry"/></mxCell><mxCell id="380" style="edgeStyle=none;html=1;exitX=0.5;exitY=1;exitDx=0;exitDy=0;entryX=0.5;entryY=0;entryDx=0;entryDy=0;strokeColor=default;strokeWidth=2;fontSize=15;fontColor=#000000;endArrow=none;endFill=0;" parent="1" source="344" target="376" edge="1"><mxGeometry relative="1" as="geometry"/></mxCell><mxCell id="344" value="تاریخ پس دادن وام" style="ellipse;whiteSpace=wrap;html=1;align=center;labelBackgroundColor=none;labelBorderColor=none;fontSize=15;fontColor=#000000;fillColor=none;strokeColor=#000000;strokeWidth=2;" parent="1" vertex="1"><mxGeometry x="871.38" y="1313" width="117.25" height="62" as="geometry"/></mxCell><mxCell id="351" style="edgeStyle=none;html=1;exitX=0;exitY=1;exitDx=0;exitDy=0;strokeColor=default;strokeWidth=2;fontSize=15;fontColor=#000000;endArrow=none;endFill=0;" parent="1" source="346" target="282" edge="1"><mxGeometry relative="1" as="geometry"/></mxCell><mxCell id="352" style="edgeStyle=none;html=1;exitX=0;exitY=0.5;exitDx=0;exitDy=0;entryX=1;entryY=0.5;entryDx=0;entryDy=0;strokeColor=default;strokeWidth=2;fontSize=15;fontColor=#000000;endArrow=none;endFill=0;" parent="1" source="346" target="283" edge="1"><mxGeometry relative="1" as="geometry"/></mxCell><mxCell id="353" style="edgeStyle=none;html=1;exitX=0.5;exitY=0;exitDx=0;exitDy=0;entryX=0.565;entryY=1.042;entryDx=0;entryDy=0;entryPerimeter=0;strokeColor=default;strokeWidth=2;fontSize=15;fontColor=#000000;endArrow=none;endFill=0;" parent="1" source="346" target="54" edge="1"><mxGeometry relative="1" as="geometry"/></mxCell><mxCell id="354" style="edgeStyle=none;html=1;exitX=0.5;exitY=0;exitDx=0;exitDy=0;entryX=0.5;entryY=1;entryDx=0;entryDy=0;strokeColor=default;strokeWidth=2;fontSize=15;fontColor=#000000;endArrow=none;endFill=0;" parent="1" source="346" target="290" edge="1"><mxGeometry relative="1" as="geometry"/></mxCell><mxCell id="355" style="edgeStyle=none;html=1;exitX=0;exitY=0;exitDx=0;exitDy=0;entryX=0.913;entryY=0.782;entryDx=0;entryDy=0;strokeColor=default;strokeWidth=2;fontSize=15;fontColor=#000000;endArrow=none;endFill=0;entryPerimeter=0;" parent="1" source="346" target="56" edge="1"><mxGeometry relative="1" as="geometry"/></mxCell><mxCell id="446" value="1" style="edgeStyle=none;html=1;exitX=1;exitY=0;exitDx=0;exitDy=0;entryX=0.062;entryY=0.49;entryDx=0;entryDy=0;strokeColor=default;strokeWidth=2;fontSize=15;fontColor=#000000;endArrow=none;endFill=0;entryPerimeter=0;" parent="1" source="346" target="443" edge="1"><mxGeometry relative="1" as="geometry"/></mxCell><mxCell id="449" value="1" style="edgeStyle=none;html=1;exitX=0.986;exitY=0.967;exitDx=0;exitDy=0;strokeColor=default;strokeWidth=2;fontSize=15;fontColor=#000000;endArrow=none;endFill=0;exitPerimeter=0;entryX=0.489;entryY=0.142;entryDx=0;entryDy=0;entryPerimeter=0;" parent="1" source="346" target="448" edge="1"><mxGeometry relative="1" as="geometry"/></mxCell><mxCell id="346" value="شعبه" style="whiteSpace=wrap;html=1;align=center;labelBackgroundColor=none;labelBorderColor=none;fontSize=15;fontColor=#ffffff;fillColor=#0050ef;strokeColor=none;rounded=1;" parent="1" vertex="1"><mxGeometry x="331" y="700.75" width="100" height="40" as="geometry"/></mxCell><mxCell id="358" value="N" style="edgeStyle=none;html=1;exitX=0.5;exitY=1;exitDx=0;exitDy=0;entryX=0.5;entryY=0;entryDx=0;entryDy=0;strokeColor=default;strokeWidth=2;fontSize=15;fontColor=#000000;endArrow=none;endFill=0;" parent="1" source="356" target="337" edge="1"><mxGeometry relative="1" as="geometry"/></mxCell><mxCell id="359" value="1" style="edgeStyle=none;html=1;strokeColor=default;strokeWidth=2;fontSize=15;fontColor=#000000;endArrow=none;endFill=0;" parent="1" source="356" target="332" edge="1"><mxGeometry relative="1" as="geometry"/></mxCell><mxCell id="356" value="&lt;font style=&quot;font-size: 15px;&quot;&gt;گرفتن&lt;/font&gt;" style="shape=rhombus;perimeter=rhombusPerimeter;whiteSpace=wrap;html=1;align=center;labelBackgroundColor=none;labelBorderColor=none;fontSize=14;fontColor=#ffffff;fillColor=#4D9900;strokeColor=none;rounded=1;" parent="1" vertex="1"><mxGeometry x="889.5" y="1063" width="81" height="64.5" as="geometry"/></mxCell><mxCell id="362" value="N" style="edgeStyle=none;html=1;exitX=0.5;exitY=1;exitDx=0;exitDy=0;entryX=0.5;entryY=0;entryDx=0;entryDy=0;strokeColor=default;strokeWidth=2;fontSize=15;fontColor=#000000;endArrow=none;endFill=0;" parent="1" source="360" target="332" edge="1"><mxGeometry relative="1" as="geometry"/></mxCell><mxCell id="360" value="&lt;font style=&quot;font-size: 15px;&quot;&gt;دارد&lt;/font&gt;" style="shape=rhombus;perimeter=rhombusPerimeter;whiteSpace=wrap;html=1;align=center;labelBackgroundColor=none;labelBorderColor=none;fontSize=14;fontColor=#ffffff;fillColor=#4D9900;strokeColor=none;rounded=1;" parent="1" vertex="1"><mxGeometry x="889.5" y="847.5" width="81" height="64.5" as="geometry"/></mxCell><mxCell id="454" value="" style="edgeStyle=none;html=1;" edge="1" parent="1" source="364" target="453"><mxGeometry relative="1" as="geometry"/></mxCell><mxCell id="455" value="" style="edgeStyle=none;html=1;" edge="1" parent="1" source="364" target="453"><mxGeometry relative="1" as="geometry"/></mxCell><mxCell id="458" value="" style="edgeStyle=none;html=1;" edge="1" parent="1" source="364" target="457"><mxGeometry relative="1" as="geometry"/></mxCell><mxCell id="364" value="&lt;font style=&quot;font-size: 15px;&quot;&gt;آدرس&lt;/font&gt;" style="ellipse;shape=doubleEllipse;margin=3;whiteSpace=wrap;html=1;align=center;rounded=1;labelBackgroundColor=none;strokeColor=default;strokeWidth=2;fontSize=18;fontColor=#000000;fillColor=none;" parent="1" vertex="1"><mxGeometry x="787" y="879" width="74.5" height="44.5" as="geometry"/></mxCell><mxCell id="365" value="&lt;font style=&quot;font-size: 15px;&quot;&gt;شماره تماس&lt;/font&gt;" style="ellipse;shape=doubleEllipse;margin=3;whiteSpace=wrap;html=1;align=center;rounded=1;labelBackgroundColor=none;strokeColor=default;strokeWidth=2;fontSize=18;fontColor=#000000;fillColor=none;" parent="1" vertex="1"><mxGeometry x="736.5" y="927.5" width="87" height="39.5" as="geometry"/></mxCell><mxCell id="367" value="&lt;font style=&quot;font-size: 15px;&quot;&gt;شغل&lt;/font&gt;" style="ellipse;whiteSpace=wrap;html=1;align=center;labelBackgroundColor=none;labelBorderColor=none;fontSize=14;fontColor=#000000;fillColor=none;strokeColor=default;strokeWidth=2;" parent="1" vertex="1"><mxGeometry x="1029" y="952" width="69.75" height="44" as="geometry"/></mxCell><mxCell id="375" value="سال" style="ellipse;whiteSpace=wrap;html=1;align=center;labelBackgroundColor=none;labelBorderColor=none;fontSize=15;fontColor=#000000;fillColor=none;strokeColor=default;strokeWidth=2;" parent="1" vertex="1"><mxGeometry x="857" y="1414" width="45" height="30" as="geometry"/></mxCell><mxCell id="376" value="روز" style="ellipse;whiteSpace=wrap;html=1;align=center;labelBackgroundColor=none;labelBorderColor=none;fontSize=15;fontColor=#000000;fillColor=none;strokeColor=default;strokeWidth=2;" parent="1" vertex="1"><mxGeometry x="958" y="1416" width="45" height="30" as="geometry"/></mxCell><mxCell id="377" value="ماه&lt;span style=&quot;font-family: monospace; font-size: 0px; text-align: start;&quot;&gt;%3CmxGraphModel%3E%3Croot%3E%3CmxCell%20id%3D%220%22%2F%3E%3CmxCell%20id%3D%221%22%20parent%3D%220%22%2F%3E%3CmxCell%20id%3D%222%22%20value%3D%22%D8%B1%D9%88%D8%B2%22%20style%3D%22ellipse%3BwhiteSpace%3Dwrap%3Bhtml%3D1%3Balign%3Dcenter%3BlabelBackgroundColor%3Dnone%3BlabelBorderColor%3Dnone%3BfontSize%3D15%3BfontColor%3D%23333333%3BfillColor%3D%23f5f5f5%3BstrokeColor%3D%23666666%3B%22%20vertex%3D%221%22%20parent%3D%221%22%3E%3CmxGeometry%20x%3D%22175%22%20y%3D%221040%22%20width%3D%2280%22%20height%3D%2240%22%20as%3D%22geometry%22%2F%3E%3C%2FmxCell%3E%3C%2Froot%3E%3C%2FmxGraphModel%3E&lt;/span&gt;&lt;span style=&quot;font-family: monospace; font-size: 0px; text-align: start;&quot;&gt;%3CmxGraphModel%3E%3Croot%3E%3CmxCell%20id%3D%220%22%2F%3E%3CmxCell%20id%3D%221%22%20parent%3D%220%22%2F%3E%3CmxCell%20id%3D%222%22%20value%3D%22%D8%B1%D9%88%D8%B2%22%20style%3D%22ellipse%3BwhiteSpace%3Dwrap%3Bhtml%3D1%3Balign%3Dcenter%3BlabelBackgroundColor%3Dnone%3BlabelBorderColor%3Dnone%3BfontSize%3D15%3BfontColor%3D%23333333%3BfillColor%3D%23f5f5f5%3BstrokeColor%3D%23666666%3B%22%20vertex%3D%221%22%20parent%3D%221%22%3E%3CmxGeometry%20x%3D%22175%22%20y%3D%221040%22%20width%3D%2280%22%20height%3D%2240%22%20as%3D%22geometry%22%2F%3E%3C%2FmxCell%3E%3C%2Froot%3E%3C%2FmxGraphModel%3E&lt;/span&gt;" style="ellipse;whiteSpace=wrap;html=1;align=center;labelBackgroundColor=none;labelBorderColor=none;fontSize=15;fontColor=#000000;fillColor=none;strokeColor=default;strokeWidth=2;" parent="1" vertex="1"><mxGeometry x="907.38" y="1430" width="45" height="30" as="geometry"/></mxCell><mxCell id="381" value="سال" style="ellipse;whiteSpace=wrap;html=1;align=center;labelBackgroundColor=none;labelBorderColor=none;fontSize=15;fontColor=#000000;fillColor=none;strokeColor=default;strokeWidth=2;" parent="1" vertex="1"><mxGeometry x="1024.31" y="1375" width="45" height="30" as="geometry"/></mxCell><mxCell id="382" value="روز" style="ellipse;whiteSpace=wrap;html=1;align=center;labelBackgroundColor=none;labelBorderColor=none;fontSize=15;fontColor=#000000;fillColor=none;strokeColor=default;strokeWidth=2;" parent="1" vertex="1"><mxGeometry x="1118" y="1342" width="45" height="30" as="geometry"/></mxCell><mxCell id="383" value="ماه&lt;span style=&quot;font-family: monospace; font-size: 0px; text-align: start;&quot;&gt;%3CmxGraphModel%3E%3Croot%3E%3CmxCell%20id%3D%220%22%2F%3E%3CmxCell%20id%3D%221%22%20parent%3D%220%22%2F%3E%3CmxCell%20id%3D%222%22%20value%3D%22%D8%B1%D9%88%D8%B2%22%20style%3D%22ellipse%3BwhiteSpace%3Dwrap%3Bhtml%3D1%3Balign%3Dcenter%3BlabelBackgroundColor%3Dnone%3BlabelBorderColor%3Dnone%3BfontSize%3D15%3BfontColor%3D%23333333%3BfillColor%3D%23f5f5f5%3BstrokeColor%3D%23666666%3B%22%20vertex%3D%221%22%20parent%3D%221%22%3E%3CmxGeometry%20x%3D%22175%22%20y%3D%221040%22%20width%3D%2280%22%20height%3D%2240%22%20as%3D%22geometry%22%2F%3E%3C%2FmxCell%3E%3C%2Froot%3E%3C%2FmxGraphModel%3E&lt;/span&gt;&lt;span style=&quot;font-family: monospace; font-size: 0px; text-align: start;&quot;&gt;%3CmxGraphModel%3E%3Croot%3E%3CmxCell%20id%3D%220%22%2F%3E%3CmxCell%20id%3D%221%22%20parent%3D%220%22%2F%3E%3CmxCell%20id%3D%222%22%20value%3D%22%D8%B1%D9%88%D8%B2%22%20style%3D%22ellipse%3BwhiteSpace%3Dwrap%3Bhtml%3D1%3Balign%3Dcenter%3BlabelBackgroundColor%3Dnone%3BlabelBorderColor%3Dnone%3BfontSize%3D15%3BfontColor%3D%23333333%3BfillColor%3D%23f5f5f5%3BstrokeColor%3D%23666666%3B%22%20vertex%3D%221%22%20parent%3D%221%22%3E%3CmxGeometry%20x%3D%22175%22%20y%3D%221040%22%20width%3D%2280%22%20height%3D%2240%22%20as%3D%22geometry%22%2F%3E%3C%2FmxCell%3E%3C%2Froot%3E%3C%2FmxGraphModel%3E&lt;/span&gt;" style="ellipse;whiteSpace=wrap;html=1;align=center;labelBackgroundColor=none;labelBorderColor=none;fontSize=15;fontColor=#000000;fillColor=none;strokeColor=default;strokeWidth=2;" parent="1" vertex="1"><mxGeometry x="1073" y="1362" width="45" height="30" as="geometry"/></mxCell><mxCell id="389" value="نوع وام" style="ellipse;whiteSpace=wrap;html=1;align=center;labelBackgroundColor=none;labelBorderColor=none;fontSize=15;fontColor=#000000;fillColor=none;strokeColor=#000000;strokeWidth=2;" parent="1" vertex="1"><mxGeometry x="707" y="1211" width="90" height="40" as="geometry"/></mxCell><mxCell id="390" value="نرخ سود" style="ellipse;whiteSpace=wrap;html=1;align=center;labelBackgroundColor=none;labelBorderColor=none;fontSize=15;fontColor=#000000;fillColor=none;strokeColor=#000000;strokeWidth=2;" parent="1" vertex="1"><mxGeometry x="1039" y="1211" width="69" height="40" as="geometry"/></mxCell><mxCell id="421" style="edgeStyle=none;html=1;exitX=1;exitY=0.5;exitDx=0;exitDy=0;entryX=0;entryY=0.5;entryDx=0;entryDy=0;strokeColor=default;strokeWidth=2;fontSize=15;fontColor=#000000;endArrow=none;endFill=0;" parent="1" source="393" target="419" edge="1"><mxGeometry relative="1" as="geometry"/></mxCell><mxCell id="422" style="edgeStyle=none;html=1;exitX=1;exitY=0.5;exitDx=0;exitDy=0;entryX=0;entryY=0.5;entryDx=0;entryDy=0;strokeColor=default;strokeWidth=2;fontSize=15;fontColor=#000000;endArrow=none;endFill=0;" parent="1" source="393" target="420" edge="1"><mxGeometry relative="1" as="geometry"/></mxCell><mxCell id="425" style="edgeStyle=none;html=1;exitX=0;exitY=0.5;exitDx=0;exitDy=0;entryX=1;entryY=0.5;entryDx=0;entryDy=0;strokeColor=default;strokeWidth=2;fontSize=15;fontColor=#000000;endArrow=none;endFill=0;" parent="1" source="393" target="423" edge="1"><mxGeometry relative="1" as="geometry"/></mxCell><mxCell id="426" style="edgeStyle=none;html=1;exitX=0.5;exitY=1;exitDx=0;exitDy=0;entryX=0.5;entryY=0;entryDx=0;entryDy=0;strokeColor=default;strokeWidth=2;fontSize=15;fontColor=#000000;endArrow=none;endFill=0;" parent="1" source="393" target="424" edge="1"><mxGeometry relative="1" as="geometry"/></mxCell><mxCell id="393" value="حساب" style="shape=ext;margin=3;double=1;whiteSpace=wrap;html=1;align=center;labelBackgroundColor=none;labelBorderColor=none;fontSize=15;fontColor=#ffffff;fillColor=#0050EF;strokeColor=default;rounded=1;strokeWidth=2;" parent="1" vertex="1"><mxGeometry x="1144" y="1134" width="100" height="40" as="geometry"/></mxCell><mxCell id="400" style="edgeStyle=none;html=1;exitX=0;exitY=0;exitDx=0;exitDy=0;entryX=0;entryY=0.5;entryDx=0;entryDy=0;strokeColor=default;strokeWidth=2;fontSize=15;fontColor=#000000;endArrow=none;endFill=0;" parent="1" source="396" target="399" edge="1"><mxGeometry relative="1" as="geometry"/></mxCell><mxCell id="396" value="دارد" style="shape=rhombus;double=1;perimeter=rhombusPerimeter;whiteSpace=wrap;html=1;align=center;fontSize=15;fillColor=#60a917;fontColor=#ffffff;strokeColor=default;direction=south;rounded=1;strokeWidth=2;" parent="1" vertex="1"><mxGeometry x="1039" y="1038" width="70" height="65" as="geometry"/></mxCell><mxCell id="404" style="edgeStyle=none;html=1;exitX=0.5;exitY=0;exitDx=0;exitDy=0;entryX=0.5;entryY=1;entryDx=0;entryDy=0;strokeColor=default;strokeWidth=2;fontSize=15;fontColor=#000000;endArrow=none;endFill=0;" parent="1" source="399" target="401" edge="1"><mxGeometry relative="1" as="geometry"/></mxCell><mxCell id="405" style="edgeStyle=none;html=1;exitX=1;exitY=0;exitDx=0;exitDy=0;entryX=0;entryY=1;entryDx=0;entryDy=0;strokeColor=default;strokeWidth=2;fontSize=15;fontColor=#000000;endArrow=none;endFill=0;" parent="1" source="399" target="402" edge="1"><mxGeometry relative="1" as="geometry"/></mxCell><mxCell id="407" style="edgeStyle=none;html=1;exitX=1;exitY=0.5;exitDx=0;exitDy=0;entryX=0;entryY=0.5;entryDx=0;entryDy=0;strokeColor=default;strokeWidth=2;fontSize=15;fontColor=#000000;endArrow=none;endFill=0;" parent="1" source="399" target="406" edge="1"><mxGeometry relative="1" as="geometry"/></mxCell><mxCell id="408" style="edgeStyle=none;html=1;exitX=1;exitY=1;exitDx=0;exitDy=0;entryX=0.076;entryY=0.247;entryDx=0;entryDy=0;entryPerimeter=0;strokeColor=default;strokeWidth=2;fontSize=15;fontColor=#000000;endArrow=none;endFill=0;" parent="1" source="399" target="403" edge="1"><mxGeometry relative="1" as="geometry"/></mxCell><mxCell id="399" value="&lt;font style=&quot;font-size: 15px;&quot;&gt;کارت بانکی&lt;/font&gt;" style="ellipse;whiteSpace=wrap;html=1;align=center;labelBackgroundColor=none;labelBorderColor=none;fontSize=14;fontColor=#000000;fillColor=none;strokeColor=default;strokeWidth=2;" parent="1" vertex="1"><mxGeometry x="1142" y="996" width="69.75" height="44" as="geometry"/></mxCell><mxCell id="401" value="&lt;font style=&quot;font-size: 15px;&quot;&gt;شماره کارت&lt;/font&gt;" style="ellipse;whiteSpace=wrap;html=1;align=center;labelBackgroundColor=none;labelBorderColor=none;fontSize=14;fontColor=#000000;fillColor=none;strokeColor=default;strokeWidth=2;" parent="1" vertex="1"><mxGeometry x="1142" y="926" width="69.75" height="44" as="geometry"/></mxCell><mxCell id="402" value="&lt;font style=&quot;font-size: 15px;&quot;&gt;CVV2&lt;/font&gt;" style="ellipse;whiteSpace=wrap;html=1;align=center;labelBackgroundColor=none;labelBorderColor=none;fontSize=14;fontColor=#000000;fillColor=none;strokeColor=default;strokeWidth=2;" parent="1" vertex="1"><mxGeometry x="1225" y="940" width="69.75" height="44" as="geometry"/></mxCell><mxCell id="412" style="edgeStyle=none;html=1;entryX=0;entryY=0.5;entryDx=0;entryDy=0;strokeColor=default;strokeWidth=2;fontSize=15;fontColor=#000000;endArrow=none;endFill=0;" parent="1" source="403" target="409" edge="1"><mxGeometry relative="1" as="geometry"/></mxCell><mxCell id="413" style="edgeStyle=none;html=1;exitX=1;exitY=1;exitDx=0;exitDy=0;entryX=0.5;entryY=0;entryDx=0;entryDy=0;strokeColor=default;strokeWidth=2;fontSize=15;fontColor=#000000;endArrow=none;endFill=0;" parent="1" source="403" target="411" edge="1"><mxGeometry relative="1" as="geometry"/></mxCell><mxCell id="414" style="edgeStyle=none;html=1;exitX=0.961;exitY=0.726;exitDx=0;exitDy=0;entryX=0;entryY=0;entryDx=0;entryDy=0;strokeColor=default;strokeWidth=2;fontSize=15;fontColor=#000000;endArrow=none;endFill=0;exitPerimeter=0;" parent="1" source="403" target="410" edge="1"><mxGeometry relative="1" as="geometry"/></mxCell><mxCell id="403" value="&lt;font style=&quot;font-size: 15px;&quot;&gt;تاریخ انقضا&lt;/font&gt;" style="ellipse;whiteSpace=wrap;html=1;align=center;labelBackgroundColor=none;labelBorderColor=none;fontSize=14;fontColor=#000000;fillColor=none;strokeColor=default;strokeWidth=2;" parent="1" vertex="1"><mxGeometry x="1235" y="1046" width="69.75" height="44" as="geometry"/></mxCell><mxCell id="417" style="edgeStyle=none;html=1;exitX=1;exitY=0.5;exitDx=0;exitDy=0;entryX=0;entryY=1;entryDx=0;entryDy=0;strokeColor=default;strokeWidth=2;fontSize=15;fontColor=#000000;endArrow=none;endFill=0;" parent="1" source="406" target="416" edge="1"><mxGeometry relative="1" as="geometry"/></mxCell><mxCell id="418" style="edgeStyle=none;html=1;exitX=1;exitY=0.5;exitDx=0;exitDy=0;entryX=0;entryY=0;entryDx=0;entryDy=0;strokeColor=default;strokeWidth=2;fontSize=15;fontColor=#000000;endArrow=none;endFill=0;" parent="1" source="406" target="415" edge="1"><mxGeometry relative="1" as="geometry"/></mxCell><mxCell id="406" value="&lt;span style=&quot;font-size: 15px;&quot;&gt;نام و نام خانوادگی&lt;/span&gt;" style="ellipse;whiteSpace=wrap;html=1;align=center;labelBackgroundColor=none;labelBorderColor=none;fontSize=14;fontColor=#000000;fillColor=none;strokeColor=default;strokeWidth=2;" parent="1" vertex="1"><mxGeometry x="1273" y="994" width="100" height="49" as="geometry"/></mxCell><mxCell id="409" value="روز" style="ellipse;whiteSpace=wrap;html=1;align=center;labelBackgroundColor=none;labelBorderColor=none;fontSize=15;fontColor=#000000;fillColor=none;strokeColor=default;strokeWidth=2;" parent="1" vertex="1"><mxGeometry x="1335.5" y="1053" width="45" height="30" as="geometry"/></mxCell><mxCell id="410" value="ماه&lt;span style=&quot;font-family: monospace; font-size: 0px; text-align: start;&quot;&gt;%3CmxGraphModel%3E%3Croot%3E%3CmxCell%20id%3D%220%22%2F%3E%3CmxCell%20id%3D%221%22%20parent%3D%220%22%2F%3E%3CmxCell%20id%3D%222%22%20value%3D%22%D8%B1%D9%88%D8%B2%22%20style%3D%22ellipse%3BwhiteSpace%3Dwrap%3Bhtml%3D1%3Balign%3Dcenter%3BlabelBackgroundColor%3Dnone%3BlabelBorderColor%3Dnone%3BfontSize%3D15%3BfontColor%3D%23333333%3BfillColor%3D%23f5f5f5%3BstrokeColor%3D%23666666%3B%22%20vertex%3D%221%22%20parent%3D%221%22%3E%3CmxGeometry%20x%3D%22175%22%20y%3D%221040%22%20width%3D%2280%22%20height%3D%2240%22%20as%3D%22geometry%22%2F%3E%3C%2FmxCell%3E%3C%2Froot%3E%3C%2FmxGraphModel%3E&lt;/span&gt;&lt;span style=&quot;font-family: monospace; font-size: 0px; text-align: start;&quot;&gt;%3CmxGraphModel%3E%3Croot%3E%3CmxCell%20id%3D%220%22%2F%3E%3CmxCell%20id%3D%221%22%20parent%3D%220%22%2F%3E%3CmxCell%20id%3D%222%22%20value%3D%22%D8%B1%D9%88%D8%B2%22%20style%3D%22ellipse%3BwhiteSpace%3Dwrap%3Bhtml%3D1%3Balign%3Dcenter%3BlabelBackgroundColor%3Dnone%3BlabelBorderColor%3Dnone%3BfontSize%3D15%3BfontColor%3D%23333333%3BfillColor%3D%23f5f5f5%3BstrokeColor%3D%23666666%3B%22%20vertex%3D%221%22%20parent%3D%221%22%3E%3CmxGeometry%20x%3D%22175%22%20y%3D%221040%22%20width%3D%2280%22%20height%3D%2240%22%20as%3D%22geometry%22%2F%3E%3C%2FmxCell%3E%3C%2Froot%3E%3C%2FmxGraphModel%3E&lt;/span&gt;" style="ellipse;whiteSpace=wrap;html=1;align=center;labelBackgroundColor=none;labelBorderColor=none;fontSize=15;fontColor=#000000;fillColor=none;strokeColor=default;strokeWidth=2;" parent="1" vertex="1"><mxGeometry x="1323" y="1085" width="45" height="30" as="geometry"/></mxCell><mxCell id="411" value="سال" style="ellipse;whiteSpace=wrap;html=1;align=center;labelBackgroundColor=none;labelBorderColor=none;fontSize=15;fontColor=#000000;fillColor=none;strokeColor=default;strokeWidth=2;" parent="1" vertex="1"><mxGeometry x="1282.5" y="1104" width="45" height="30" as="geometry"/></mxCell><mxCell id="415" value="نام" style="ellipse;whiteSpace=wrap;html=1;align=center;labelBackgroundColor=none;labelBorderColor=none;fontSize=15;fontColor=#000000;fillColor=none;strokeColor=default;strokeWidth=2;" parent="1" vertex="1"><mxGeometry x="1387" y="1025" width="45" height="28" as="geometry"/></mxCell><mxCell id="416" value="فامیل" style="ellipse;whiteSpace=wrap;html=1;align=center;labelBackgroundColor=none;labelBorderColor=none;fontSize=15;fontColor=#000000;fillColor=none;strokeColor=default;strokeWidth=2;" parent="1" vertex="1"><mxGeometry x="1387" y="984" width="45" height="28" as="geometry"/></mxCell><mxCell id="419" value="&lt;font style=&quot;font-size: 15px;&quot;&gt;شماره حساب&lt;/font&gt;" style="ellipse;whiteSpace=wrap;html=1;align=center;labelBackgroundColor=none;labelBorderColor=none;fontSize=14;fontColor=#000000;fillColor=none;strokeColor=default;strokeWidth=2;" parent="1" vertex="1"><mxGeometry x="1345" y="1132" width="69.75" height="44" as="geometry"/></mxCell><mxCell id="420" value="&lt;font style=&quot;font-size: 15px;&quot;&gt;شماره شبا&lt;/font&gt;" style="ellipse;whiteSpace=wrap;html=1;align=center;labelBackgroundColor=none;labelBorderColor=none;fontSize=14;fontColor=#000000;fillColor=none;strokeColor=default;strokeWidth=2;" parent="1" vertex="1"><mxGeometry x="1317.25" y="1182" width="69.75" height="44" as="geometry"/></mxCell><mxCell id="423" value="&lt;font style=&quot;font-size: 15px;&quot;&gt;موجودی&lt;/font&gt;" style="ellipse;whiteSpace=wrap;html=1;align=center;labelBackgroundColor=none;labelBorderColor=none;fontSize=14;fontColor=#000000;fillColor=none;strokeColor=default;strokeWidth=2;" parent="1" vertex="1"><mxGeometry x="999.5600000000001" y="1132" width="69.75" height="44" as="geometry"/></mxCell><mxCell id="429" style="edgeStyle=none;html=1;exitX=0.5;exitY=1;exitDx=0;exitDy=0;entryX=0.5;entryY=0;entryDx=0;entryDy=0;strokeColor=default;strokeWidth=2;fontSize=15;fontColor=#000000;endArrow=none;endFill=0;" parent="1" source="424" target="428" edge="1"><mxGeometry relative="1" as="geometry"/></mxCell><mxCell id="432" style="edgeStyle=none;html=1;exitX=1;exitY=0.5;exitDx=0;exitDy=0;entryX=0;entryY=0;entryDx=0;entryDy=0;strokeColor=default;strokeWidth=2;fontSize=15;fontColor=#000000;endArrow=none;endFill=0;" parent="1" source="424" target="431" edge="1"><mxGeometry relative="1" as="geometry"/></mxCell><mxCell id="433" style="edgeStyle=none;html=1;exitX=1;exitY=1;exitDx=0;exitDy=0;entryX=0;entryY=0;entryDx=0;entryDy=0;strokeColor=default;strokeWidth=2;fontSize=15;fontColor=#000000;endArrow=none;endFill=0;" parent="1" source="424" target="430" edge="1"><mxGeometry relative="1" as="geometry"/></mxCell><mxCell id="424" value="&lt;font style=&quot;font-size: 15px;&quot;&gt;نوع حساب&lt;/font&gt;" style="ellipse;whiteSpace=wrap;html=1;align=center;labelBackgroundColor=none;labelBorderColor=none;fontSize=14;fontColor=#000000;fillColor=none;strokeColor=default;strokeWidth=2;" parent="1" vertex="1"><mxGeometry x="1143" y="1217" width="99" height="65" as="geometry"/></mxCell><mxCell id="428" value="نرخ سود" style="ellipse;whiteSpace=wrap;html=1;align=center;labelBackgroundColor=none;labelBorderColor=none;fontSize=15;fontColor=#000000;fillColor=none;strokeColor=#000000;strokeWidth=2;" parent="1" vertex="1"><mxGeometry x="1161.9399999999998" y="1313" width="61.12" height="40" as="geometry"/></mxCell><mxCell id="430" value="سقف برداشت" style="ellipse;whiteSpace=wrap;html=1;align=center;labelBackgroundColor=none;labelBorderColor=none;fontSize=15;fontColor=#000000;fillColor=none;strokeColor=#000000;strokeWidth=2;" parent="1" vertex="1"><mxGeometry x="1233" y="1317" width="88.37" height="45" as="geometry"/></mxCell><mxCell id="431" value="محدودیت انتقال پول" style="ellipse;whiteSpace=wrap;html=1;align=center;labelBackgroundColor=none;labelBorderColor=none;fontSize=15;fontColor=#000000;fillColor=none;strokeColor=#000000;strokeWidth=2;" parent="1" vertex="1"><mxGeometry x="1263.22" y="1265" width="119.56" height="45" as="geometry"/></mxCell><mxCell id="436" value="&lt;font style=&quot;font-size: 15px;&quot;&gt;شماره تماس&lt;/font&gt;" style="ellipse;shape=doubleEllipse;margin=3;whiteSpace=wrap;html=1;align=center;rounded=1;labelBackgroundColor=none;strokeColor=default;strokeWidth=2;fontSize=18;fontColor=#000000;fillColor=none;" parent="1" vertex="1"><mxGeometry x="1109" y="683" width="74.5" height="44.5" as="geometry"/></mxCell><mxCell id="438" value="نام" style="ellipse;whiteSpace=wrap;html=1;align=center;labelBackgroundColor=none;labelBorderColor=none;fontSize=15;fontColor=#000000;fillColor=none;strokeColor=default;strokeWidth=2;" parent="1" vertex="1"><mxGeometry x="655" y="973" width="45" height="28" as="geometry"/></mxCell><mxCell id="439" value="فامیل" style="ellipse;whiteSpace=wrap;html=1;align=center;labelBackgroundColor=none;labelBorderColor=none;fontSize=15;fontColor=#000000;fillColor=none;strokeColor=default;strokeWidth=2;" parent="1" vertex="1"><mxGeometry x="655" y="1004" width="45" height="28" as="geometry"/></mxCell><mxCell id="443" value="&lt;font style=&quot;font-size: 15px;&quot;&gt;دارد&lt;/font&gt;" style="shape=rhombus;perimeter=rhombusPerimeter;whiteSpace=wrap;html=1;align=center;labelBackgroundColor=none;labelBorderColor=none;fontSize=14;fontColor=#ffffff;fillColor=#4D9900;strokeColor=none;rounded=1;rotation=-30;" parent="1" vertex="1"><mxGeometry x="484" y="635" width="59" height="56.5" as="geometry"/></mxCell><mxCell id="450" value="N" style="edgeStyle=none;html=1;entryX=0.004;entryY=0.206;entryDx=0;entryDy=0;strokeColor=default;strokeWidth=2;fontSize=15;fontColor=#000000;endArrow=none;endFill=0;entryPerimeter=0;" parent="1" source="448" target="4" edge="1"><mxGeometry relative="1" as="geometry"><Array as="points"><mxPoint x="499" y="813"/></Array></mxGeometry></mxCell><mxCell id="448" value="&lt;font style=&quot;font-size: 15px;&quot;&gt;دارد&lt;/font&gt;" style="shape=rhombus;perimeter=rhombusPerimeter;whiteSpace=wrap;html=1;align=center;labelBackgroundColor=none;labelBorderColor=none;fontSize=14;fontColor=#ffffff;fillColor=#4D9900;strokeColor=none;rounded=1;rotation=0;" parent="1" vertex="1"><mxGeometry x="402" y="784" width="59" height="56.5" as="geometry"/></mxCell><mxCell id="453" value="" style="ellipse;whiteSpace=wrap;html=1;fontSize=18;fillColor=none;fontColor=#000000;rounded=1;labelBackgroundColor=none;strokeWidth=2;rotation=-60;" vertex="1" parent="1"><mxGeometry x="739.23" y="894.06" width="29" height="13.2" as="geometry"/></mxCell><mxCell id="457" value="" style="ellipse;whiteSpace=wrap;html=1;fontSize=18;fillColor=none;fontColor=#000000;rounded=1;labelBackgroundColor=none;strokeWidth=2;rotation=-45;" vertex="1" parent="1"><mxGeometry x="758.35" y="866.18" width="25.13" height="14.13" as="geometry"/></mxCell><mxCell id="466" style="edgeStyle=none;shape=link;html=1;entryX=0.092;entryY=0.385;entryDx=0;entryDy=0;entryPerimeter=0;fontSize=14;fontColor=#000000;" edge="1" parent="1" target="393"><mxGeometry relative="1" as="geometry"><mxPoint x="1137.2230483271373" y="1132" as="sourcePoint"/></mxGeometry></mxCell><mxCell id="465" value="" style="edgeStyle=none;shape=link;html=1;exitX=1;exitY=0;exitDx=0;exitDy=0;endArrow=none;" edge="1" parent="1" source="396"><mxGeometry relative="1" as="geometry"><mxPoint x="1091.5" y="1086.75" as="sourcePoint"/><mxPoint x="1118.6678321678323" y="1113" as="targetPoint"/></mxGeometry></mxCell><mxCell id="471" value="&lt;font style=&quot;font-size: 16px;&quot;&gt;دارد&lt;/font&gt;" style="shape=rhombus;perimeter=rhombusPerimeter;whiteSpace=wrap;html=1;align=center;labelBackgroundColor=none;fontSize=16;fontColor=#FFFFFF;strokeColor=none;strokeWidth=6;fillColor=#60a917;gradientColor=none;" vertex="1" parent="1"><mxGeometry x="-23" y="975" width="62" height="50" as="geometry"/></mxCell><mxCell id="475" style="edgeStyle=none;html=1;strokeColor=default;strokeWidth=2;fontSize=15;fontColor=#000000;endArrow=none;endFill=0;entryX=0.5;entryY=1;entryDx=0;entryDy=0;" edge="1" parent="1" target="471"><mxGeometry relative="1" as="geometry"><mxPoint x="912" y="993" as="sourcePoint"/><mxPoint x="290.0585751936512" y="766.3347713737849" as="targetPoint"/><Array as="points"><mxPoint x="912" y="1053"/><mxPoint x="8" y="1062"/></Array></mxGeometry></mxCell><mxCell id="482" value="&lt;font color=&quot;#000000&quot;&gt;1&lt;/font&gt;" style="edgeLabel;html=1;align=center;verticalAlign=middle;resizable=0;points=[];fontSize=16;fontColor=#FFFFFF;rotation=0;" vertex="1" connectable="0" parent="1"><mxGeometry x="36" y="967.0039230000086" as="geometry"><mxPoint x="-28" y="71" as="offset"/></mxGeometry></mxCell><mxCell id="484" value="N" style="text;html=1;align=center;verticalAlign=middle;resizable=0;points=[];autosize=1;strokeColor=none;fillColor=none;fontSize=15;fontColor=#000000;" vertex="1" parent="1"><mxGeometry x="1118" y="1112" width="21" height="22" as="geometry"/></mxCell></root></mxGraphModel></diagram></mxfile>